<?xml version="1.0" standalone="no"?><!DOCTYPE svg PUBLIC "-//W3C//DTD SVG 1.1//EN" "http://www.w3.org/Graphics/SVG/1.1/DTD/svg11.dtd"><svg t="1615340870531" class="icon" viewBox="0 0 1024 1024" version="1.1" xmlns="http://www.w3.org/2000/svg" p-id="7849" xmlns:xlink="http://www.w3.org/1999/xlink" width="200" height="200"><defs><style type="text/css"></style></defs><path d="M877.58 464.93h-714c-14.75 0-28.05-7.64-35.56-20.45-7.35-12.63-7.64-27.77-0.84-40.57l112.64-209.83c7.1-13.38 21.04-21.76 36.34-21.76h258.21c13.45 0 24.35 10.9 24.35 24.35s-10.9 24.35-24.35 24.35H280.64L175.85 416.23H865.3l-104.77-195.2h-81.01c-13.45 0-24.35-10.9-24.35-24.35s10.9-24.35 24.35-24.35H765c15.09 0 28.99 8.28 36.27 21.6l112.67 209.89c6.94 13.09 6.59 28.32-0.89 40.83-7.44 12.64-20.73 20.28-35.47 20.28z m-112.59-243.9h0.05-0.05z m-482.2-4.02l-0.03 0.06 0.03-0.06z" fill="#325BEB" p-id="7850"></path><path d="M915.88 431.36h-39.37v9.29c0 37.53-33.6 68.06-74.91 68.06s-74.91-30.53-74.91-68.06v-9.29h-39.38v9.29c0 37.53-33.6 68.06-74.91 68.06s-74.91-30.53-74.91-68.06v-9.29h-39.38v9.29c0 37.53-33.6 68.06-74.91 68.06s-74.91-30.53-74.91-68.06v-9.29H308.81v9.29c0 37.53-32.47 68.06-72.39 68.06s-72.39-30.53-72.39-68.06v-9.29h-39.39v9.29c0 59.24 50.14 107.44 111.78 107.44 38.33 0 72.2-18.65 92.34-46.99 20.6 28.34 55.24 46.99 94.43 46.99 39.3 0 74.02-18.75 94.6-47.22 20.58 28.47 55.3 47.22 94.6 47.22s74.02-18.74 94.6-47.22c20.58 28.47 55.3 47.22 94.6 47.22 31.45 0 61.85-12.38 83.4-33.96 19.96-20 30.94-46.1 30.89-73.49v-9.28z" fill="#325BEB" p-id="7851"></path><path d="M102.66 171.84c12.74-2.71 25.47-5.9 38.32-8.14 7.31-1.18 10.85-4.12 12.03-11.91 1.53-11.56 4.48-22.87 6.84-34.19 0.35-2 0.59-4.01 2.59-5.19 2.95 14.5 6.25 28.89 8.96 43.27 0.83 4.36 2.6 6.01 6.84 6.83 14.15 2.83 28.18 6.13 42.21 10.61-13.92 3.06-27.71 6.25-41.62 8.96-4.6 0.94-6.6 2.6-7.55 7.31-2.6 14.15-5.77 28.3-8.96 43.39-4.01-6.95-3.89-14.38-5.66-21.11-2.01-7.66-3.66-15.44-4.84-23.35-0.59-4.24-2.71-5.42-6.48-6.25-14.15-2.83-28.3-6.01-42.56-9.08 0-0.21-0.12-0.68-0.12-1.15z" fill="#325BEB" opacity=".67" p-id="7852"></path><path d="M63.82 906.61c13.51-2.88 27.02-6.25 40.65-8.63 7.76-1.25 11.51-4.37 12.76-12.63 1.63-12.26 4.75-24.27 7.26-36.27 0.37-2.13 0.62-4.25 2.75-5.5 3.13 15.38 6.63 30.64 9.51 45.91 0.88 4.62 2.75 6.38 7.26 7.25 15.01 3 29.9 6.5 44.78 11.26-14.76 3.25-29.4 6.63-44.15 9.51-4.88 1-7.01 2.75-8.01 7.76-2.75 15.01-6.13 30.02-9.5 46.03-4.26-7.38-4.13-15.26-6-22.39-2.13-8.13-3.88-16.38-5.13-24.77-0.62-4.5-2.88-5.75-6.88-6.63-15.01-3-30.02-6.38-45.16-9.63-0.02-0.27-0.14-0.77-0.14-1.27z" fill="#325BEB" p-id="7853"></path><path d="M801.42 132.81c17.17-3.66 34.33-7.95 51.65-10.97 9.85-1.59 14.62-5.56 16.21-16.05 2.06-15.57 6.04-30.83 9.21-46.09 0.48-2.7 0.8-5.4 3.5-6.99 3.97 19.55 8.42 38.93 12.08 58.32 1.12 5.88 3.5 8.1 9.22 9.21 19.07 3.82 37.98 8.26 56.9 14.31-18.76 4.13-37.35 8.42-56.1 12.07-6.2 1.27-8.9 3.5-10.17 9.85-3.5 19.07-7.79 38.14-12.08 58.48-5.4-9.37-5.24-19.39-7.63-28.45-2.7-10.33-4.92-20.82-6.51-31.47-0.8-5.72-3.66-7.31-8.75-8.42-19.07-3.82-38.14-8.1-57.37-12.24-0.16-0.12-0.16-0.76-0.16-1.56z" fill="#325BEB" opacity=".2" p-id="7854"></path><path d="M553.81 561.22m-197.25 0a197.25 197.25 0 1 0 394.5 0 197.25 197.25 0 1 0-394.5 0Z" fill="#325BEB" opacity=".2" p-id="7855"></path><path d="M604.87 199.32m-24.97 0a24.97 24.97 0 1 0 49.94 0 24.97 24.97 0 1 0-49.94 0Z" fill="#325BEB" p-id="7856"></path><path d="M332.17 887.17h-35.31v0.02h-37.17c-7.27 0-13.17-4.82-13.17-10.75V517.75h-43.69v358.69c0 28.94 25.51 52.48 56.87 52.48h69.28v-0.01h3.2c11.44 0 20.75-9.36 20.75-20.87-0.02-11.5-9.33-20.87-20.76-20.87zM499.87 760.27v77.96c0 8.59 6.94 15.53 15.53 15.53h10.4c8.6 0 15.54-6.94 15.54-15.53v-77.96h67.55c8.6 0 15.53-6.94 15.53-15.53v-10.4c0-8.6-6.94-15.54-15.53-15.54h-67.55v-41.62h67.55c8.6 0 15.53-6.94 15.53-15.53v-10.41c0.45-8.59-6.63-15.68-15.23-15.68h-16.74c0.6-1.66 1.06-3.32 1.06-5.13v-31.21c0-8.59-6.94-15.53-15.54-15.53h-10.41c-8.59 0-15.53 6.94-15.53 15.53v31.21c0 1.81 0.45 3.47 1.05 5.13h-64.69c0.6-1.66 1.05-3.32 1.05-5.13v-31.21c0-8.59-6.94-15.53-15.53-15.53H463.5c-8.6 0-15.53 6.94-15.53 15.53v31.21c0 1.81 0.45 3.47 1.06 5.13h-16.74c-8.59 0-15.53 6.93-15.53 15.53v10.4c0 8.59 6.94 15.53 15.53 15.53h67.56v41.77h-67.56c-8.59 0-15.53 6.94-15.53 15.54v10.4c0 8.59 6.94 15.53 15.53 15.53h67.58z" fill="#325BEB" p-id="7857"></path><path d="M794.73 517.75v358.69c0 5.93-5.91 10.75-13.17 10.75H489.98v-0.02h-30.71c-0.07 0-0.13 0.02-0.2 0.02h-1.1v0.11c-10.82 0.69-19.44 9.68-19.44 20.73 0 11.06 8.62 20.04 19.44 20.73v0.15h323.5c31.29 0 56.84-23.52 56.95-52.48V517.75h-43.69z" fill="#325BEB" p-id="7858"></path><path d="M395.52 908.29m-23.86 0a23.86 23.86 0 1 0 47.72 0 23.86 23.86 0 1 0-47.72 0Z" fill="#325BEB" p-id="7859"></path></svg>